<?xml version="1.0" encoding="iso-8859-1"?>
<!-- Uploaded to: SVG Repo, www.svgrepo.com, Generator: SVG Repo Mixer Tools -->
<svg height="800px" width="800px" version="1.1" id="Layer_1" xmlns="http://www.w3.org/2000/svg" xmlns:xlink="http://www.w3.org/1999/xlink" 
	 viewBox="0 0 496.166 496.166" xml:space="preserve">
<path style="fill:#D0E8EA;" d="M248.079,0C111.074,0,0.004,111.062,0.004,248.083c0,137.005,111.07,248.083,248.075,248.083
	c137.013,0,248.083-111.078,248.083-248.083C496.162,111.062,385.092,0,248.079,0z"/>
<path style="fill:#E8DF3D;" d="M246.082,132.629c-56.789,0-102.822,46.033-102.822,102.823c0,56.782,46.033,102.822,102.822,102.822
	c56.782,0,102.823-46.04,102.823-102.822C348.905,178.662,302.864,132.629,246.082,132.629z"/>
<g style="opacity:0.9;">
	<path style="fill:#FFFFFF;" d="M205.833,275.563c-2.8,0-5.516,0.391-8.109,1.063c-5.517-10.122-16.25-16.984-28.582-16.984
		c-8.24,0-15.729,3.083-21.46,8.125c-5.738-5.042-13.235-8.125-21.468-8.125c-14.114,0-26.096,9.005-30.602,21.575
		c-5.394-3.971-12.034-6.343-19.249-6.343c-17.971,0-32.537,14.566-32.537,32.538c0,15.018,10.183,27.618,24.015,31.374
		c3.749,13.824,16.356,24.015,31.367,24.015c6.794,0,13.082-2.088,18.3-5.638c5.906,6.036,14.139,9.792,23.242,9.792
		c12.876,0,23.97-7.497,29.248-18.346c4.827,2.839,10.443,4.491,16.448,4.491c10.703,0,20.167-5.188,26.097-13.159
		c14.75-3.091,25.828-16.165,25.828-31.841C238.371,290.138,223.804,275.563,205.833,275.563z"/>
</g>
<g style="opacity:0.9;">
	<path style="fill:#FFFFFF;" d="M429.105,186.779c-2.8,0-5.517,0.391-8.109,1.063c-5.517-10.121-16.25-16.984-28.583-16.984
		c-8.239,0-15.729,3.084-21.459,8.125c-5.738-5.041-13.235-8.125-21.468-8.125c-14.115,0-26.096,9.005-30.602,21.575
		c-5.394-3.971-12.034-6.343-19.249-6.343c-17.971,0-32.537,14.566-32.537,32.538c0,15.018,10.183,27.618,24.015,31.374
		c3.749,13.825,16.356,24.016,31.367,24.016c6.793,0,13.082-2.089,18.3-5.639c5.906,6.036,14.138,9.793,23.242,9.793
		c12.876,0,23.969-7.498,29.248-18.347c4.827,2.839,10.442,4.491,16.448,4.491c10.703,0,20.167-5.188,26.096-13.159
		c14.75-3.091,25.828-16.165,25.828-31.841C461.643,201.354,447.076,186.779,429.105,186.779z"/>
</g>
</svg>