<?xml version="1.0" encoding="utf-8"?><!-- Uploaded to: SVG Repo, www.svgrepo.com, Generator: SVG Repo Mixer Tools -->
<svg width="800px" height="800px" viewBox="0 0 24 24" xmlns="http://www.w3.org/2000/svg" fill="none" stroke="#000000" stroke-width="1" stroke-linecap="round" stroke-linejoin="miter"><path d="M3.68,15H20.94A3.49,3.49,0,0,0,19,9V9A7,7,0,0,0,5.24,7.18,4.49,4.49,0,0,0,3.68,15Z" fill="#059cf7" opacity="0.1" stroke-width="0"></path><path d="M4,15.24A4.5,4.5,0,0,1,5.24,7.18,7,7,0,0,1,19,9V9a3.5,3.5,0,0,1,1,6.62"></path><line x1="12" y1="20" x2="12" y2="22"></line><line x1="12" y1="14" x2="12" y2="16"></line><line x1="16" y1="18" x2="16" y2="20"></line><line x1="16" y1="12" x2="16" y2="14"></line><line x1="8" y1="18" x2="8" y2="20"></line><line x1="8" y1="12" x2="8" y2="14"></line></svg>