<?xml version="1.0" encoding="iso-8859-1"?>
<!-- Uploaded to: SVG Repo, www.svgrepo.com, Generator: SVG Repo Mixer Tools -->
<svg height="800px" width="800px" version="1.1" id="Layer_1" xmlns="http://www.w3.org/2000/svg" xmlns:xlink="http://www.w3.org/1999/xlink" 
	 viewBox="0 0 506.628 506.628" xml:space="preserve">
<g transform="translate(0 -1004.36)" shape-rendering="auto" image-rendering="auto" color-rendering="auto" color-interpolation="sRGB">
	<path style="fill:#3B322E;" d="M316.757,1004.391L316.757,1004.391c-0.578,0.034-1.151,0.13-1.709,0.288
		c-44.422-0.608-86.641,25.663-110.542,65.25c-34.402-11.779-73.406-8.765-100.291,17.396
		c-27.943,27.195-37.047,68.305-23.146,104.625c13.902,36.319,48.16,61.04,87.229,63.021c0.139,0.004,0.277,0.004,0.416,0h143.854
		c1.196,0.005,2.377-0.256,3.458-0.768c57.569-3.49,105.458-47.005,114.479-105.396c9.239-59.809-24.613-118.015-80.667-138.208
		c-10.614-3.822-21.498-5.837-32.291-6.229c-0.263-0.013-0.526-0.013-0.789,0L316.757,1004.391z"/>
	<path style="fill:#E3E3E3;" d="M316.923,1020.433c0.082,0.001,0.164,0.001,0.245,0c9.129,0.352,18.254,2.04,27.23,5.271
		c48.762,17.567,78.393,68.266,70.291,120.708c-8.063,52.188-51.074,90.829-102.396,92.521c-0.343,0.013-0.685,0.049-1.024,0.107
		H169.104c-32.825-1.664-61.472-22.38-73.104-52.771c-11.632-30.388-4.051-64.618,19.375-87.417
		c23.017-22.396,57.789-24.84,88.938-12.479c0.095,0.037,0.191,0.073,0.288,0.107c0.373,0.139,0.756,0.249,1.146,0.331
		c0.036,0,0.071,0,0.107,0c0.233,0.046,0.468,0.081,0.704,0.107c0.227,0.01,0.455,0.01,0.683,0c0.27,0.014,0.541,0.014,0.811,0
		c0.53-0.051,1.053-0.154,1.563-0.309c1.025-0.322,1.974-0.846,2.791-1.542c0.105-0.087,0.209-0.175,0.309-0.267l0.267-0.267
		l1.292-1.208c0.602-0.557,1.115-1.204,1.521-1.917c21.087-37.597,61.255-62.391,101.104-60.937l0,0L316.923,1020.433z"/>
	<g>
		<path style="fill:#3B322E;" d="M200.126,1441.686c-4.418-0.063-8.051,3.469-8.113,7.887s3.469,8.051,7.887,8.113
			c0.075,0.001,0.151,0.001,0.226,0h106.375c4.418,0.063,8.051-3.469,8.113-7.887c0.063-4.418-3.469-8.051-7.887-8.113
			c-0.075-0.001-0.151-0.001-0.226,0H200.126z"/>
		<path style="fill:#3B322E;" d="M210.835,1420.395c-4.418-0.095-8.076,3.41-8.17,7.828c-0.029,1.341,0.281,2.669,0.899,3.859
			l8.813,17.604l-8.813,17.625c-1.964,3.96-0.347,8.762,3.613,10.727c3.939,1.953,8.716,0.365,10.7-3.56l10.583-21.208
			c1.123-2.25,1.123-4.896,0-7.146l-10.583-21.208C216.567,1422.203,213.846,1420.456,210.835,1420.395z"/>
		<path style="fill:#3B322E;" d="M295.543,1420.395c-2.92,0.152-5.524,1.887-6.792,4.521l-10.604,21.208
			c-1.123,2.25-1.123,4.896,0,7.146l10.604,21.188c1.881,3.999,6.647,5.715,10.645,3.835c3.999-1.88,5.715-6.646,3.835-10.645
			c-0.053-0.113-0.109-0.225-0.167-0.336l-8.813-17.625l8.813-17.604c2.042-3.918,0.522-8.75-3.397-10.793
			C298.397,1420.628,296.973,1420.318,295.543,1420.395z"/>
		<path style="fill:#3B322E;" d="M253.189,1388.395c-4.418,0.069-7.944,3.707-7.875,8.125l0,0v106.354
			c-0.062,4.418,3.469,8.051,7.887,8.113s8.051-3.469,8.113-7.887c0.001-0.076,0.001-0.151,0-0.227V1396.52
			c0.069-4.418-3.456-8.056-7.875-8.125C253.356,1388.393,253.272,1388.393,253.189,1388.395z"/>
		<path style="fill:#3B322E;" d="M231.835,1399.04c-4.418,0.098-7.919,3.759-7.821,8.176c0.067,3.01,1.817,5.728,4.53,7.033
			l21.188,10.604c2.255,1.13,4.911,1.13,7.167,0l21.188-10.604c3.999-1.88,5.715-6.647,3.835-10.645
			c-1.881-3.999-6.647-5.716-10.645-3.836c-0.113,0.053-0.225,0.109-0.335,0.168l-17.625,8.813l-17.625-8.813
			C234.499,1399.319,233.174,1399.012,231.835,1399.04z"/>
		<path style="fill:#3B322E;" d="M253.022,1473.707c-1.144,0.039-2.267,0.323-3.292,0.832l-21.188,10.604
			c-4.053,1.762-5.91,6.474-4.149,10.527c1.761,4.052,6.474,5.909,10.527,4.148c0.263-0.115,0.519-0.242,0.768-0.384l17.625-8.79
			l17.625,8.792c3.841,2.185,8.725,0.844,10.911-2.997c2.185-3.84,0.843-8.725-2.997-10.91c-0.249-0.142-0.505-0.27-0.768-0.384
			l-21.188-10.604c-1.201-0.598-2.534-0.884-3.875-0.832V1473.707z"/>
		<path style="fill:#3B322E;" d="M50.793,1335.02c-4.418-0.063-8.051,3.469-8.113,7.887c-0.062,4.418,3.469,8.051,7.887,8.113
			c0.075,0.001,0.151,0.001,0.226,0h106.375c4.418,0.063,8.051-3.469,8.113-7.887c0.062-4.418-3.469-8.051-7.887-8.113
			c-0.075-0.001-0.151-0.001-0.226,0H50.793z"/>
		<path style="fill:#3B322E;" d="M61.501,1313.728c-4.418-0.095-8.076,3.41-8.17,7.828c-0.029,1.341,0.281,2.669,0.899,3.859
			l8.813,17.604l-8.813,17.625c-1.964,3.96-0.345,8.762,3.615,10.725c3.938,1.953,8.715,0.365,10.698-3.559l10.583-21.208
			c1.123-2.25,1.123-4.896,0-7.146l-10.583-21.208C67.234,1315.536,64.512,1313.789,61.501,1313.728z"/>
		<path style="fill:#3B322E;" d="M146.21,1313.728c-2.92,0.152-5.524,1.887-6.792,4.521l-10.604,21.208
			c-1.123,2.25-1.123,4.896,0,7.146l10.604,21.188c1.881,3.999,6.646,5.716,10.645,3.835c3.999-1.88,5.716-6.646,3.835-10.645
			c-0.053-0.113-0.109-0.225-0.168-0.336l-8.812-17.625l8.812-17.604c2.042-3.918,0.522-8.75-3.397-10.793
			C149.064,1313.961,147.64,1313.651,146.21,1313.728z"/>
		<path style="fill:#3B322E;" d="M103.856,1281.728c-4.418,0.069-7.944,3.707-7.875,8.125c0,0,0,0,0,0v106.354
			c-0.062,4.418,3.469,8.051,7.887,8.113c4.418,0.063,8.051-3.469,8.113-7.887c0.001-0.076,0.001-0.151,0-0.227v-106.354
			c0.069-4.418-3.456-8.056-7.875-8.125C104.022,1281.727,103.939,1281.727,103.856,1281.728z"/>
		<path style="fill:#3B322E;" d="M82.501,1292.374c-4.418,0.098-7.919,3.759-7.821,8.176c0.067,3.01,1.817,5.728,4.53,7.033
			l21.188,10.604c2.255,1.13,4.911,1.13,7.167,0l21.188-10.604c3.999-1.88,5.715-6.647,3.835-10.645
			c-1.881-3.999-6.647-5.716-10.645-3.836c-0.113,0.053-0.225,0.109-0.335,0.168l-17.625,8.813l-17.625-8.813
			C85.166,1292.652,83.841,1292.345,82.501,1292.374z"/>
		<path style="fill:#3B322E;" d="M103.689,1367.04c-1.144,0.039-2.267,0.323-3.292,0.832l-21.188,10.604
			c-4.053,1.762-5.91,6.474-4.149,10.527c1.761,4.052,6.474,5.909,10.527,4.148c0.263-0.115,0.519-0.242,0.768-0.384l17.625-8.79
			l17.625,8.792c3.841,2.185,8.725,0.844,10.911-2.997c2.185-3.84,0.843-8.725-2.997-10.91c-0.249-0.142-0.505-0.27-0.768-0.384
			l-21.188-10.604c-1.201-0.598-2.534-0.884-3.875-0.832L103.689,1367.04z"/>
		<path style="fill:#3B322E;" d="M349.46,1335.02c-4.418-0.063-8.051,3.469-8.113,7.887c-0.063,4.418,3.469,8.051,7.887,8.113
			c0.075,0.001,0.151,0.001,0.226,0h106.375c4.418,0.063,8.051-3.469,8.113-7.887c0.063-4.418-3.469-8.051-7.887-8.113
			c-0.075-0.001-0.151-0.001-0.226,0H349.46z"/>
		<path style="fill:#3B322E;" d="M360.168,1313.728c-4.418-0.089-8.071,3.422-8.159,7.839c-0.027,1.331,0.279,2.646,0.888,3.828
			l8.813,17.625l-8.813,17.625c-2.066,3.906-0.574,8.747,3.332,10.814c3.906,2.065,8.747,0.573,10.813-3.332
			c0.058-0.111,0.114-0.223,0.167-0.336l10.583-21.188c1.123-2.25,1.123-4.896,0-7.146l-10.583-21.208
			C365.9,1315.536,363.179,1313.789,360.168,1313.728z"/>
		<path style="fill:#3B322E;" d="M444.876,1313.728c-2.92,0.152-5.524,1.887-6.792,4.521l-10.604,21.188
			c-1.13,2.255-1.13,4.911,0,7.167l10.604,21.188c1.881,3.999,6.647,5.715,10.645,3.835c3.999-1.88,5.715-6.646,3.835-10.645
			c-0.053-0.113-0.109-0.225-0.167-0.336l-8.813-17.625l8.813-17.625c2.031-3.925,0.495-8.753-3.429-10.783
			C447.707,1313.96,446.294,1313.654,444.876,1313.728z"/>
		<path style="fill:#3B322E;" d="M402.522,1281.728c-4.41,0.069-7.933,3.694-7.875,8.104v106.375
			c-0.062,4.418,3.469,8.051,7.887,8.113c4.418,0.063,8.051-3.469,8.113-7.887c0.001-0.076,0.001-0.151,0-0.227v-106.375
			c0.058-4.418-3.477-8.047-7.896-8.104C402.675,1281.727,402.599,1281.727,402.522,1281.728z"/>
		<path style="fill:#3B322E;" d="M381.168,1292.374c-4.418,0.098-7.919,3.759-7.821,8.176c0.067,3.01,1.817,5.728,4.53,7.033
			l21.188,10.604c2.255,1.13,4.911,1.13,7.167,0l21.188-10.604c3.999-1.88,5.715-6.647,3.835-10.645
			c-1.881-3.999-6.647-5.716-10.645-3.836c-0.113,0.053-0.225,0.109-0.335,0.168l-17.625,8.813l-17.625-8.813
			C383.833,1292.652,382.508,1292.345,381.168,1292.374z"/>
		<path style="fill:#3B322E;" d="M402.356,1367.02c-1.146,0.046-2.268,0.336-3.292,0.853l-21.188,10.582
			c-3.999,1.88-5.715,6.647-3.835,10.645c1.881,3.999,6.647,5.716,10.645,3.836c0.113-0.053,0.225-0.109,0.336-0.168l17.625-8.81
			l17.625,8.811c3.906,2.066,8.747,0.574,10.813-3.332s0.574-8.747-3.332-10.813c-0.111-0.059-0.222-0.115-0.336-0.168
			l-21.188-10.582c-1.2-0.605-2.532-0.898-3.875-0.853V1367.02z"/>
	</g>
	<path style="fill:#C2C2C2;" d="M316.923,1020.433L316.923,1020.433c-4.256-0.149-8.512,0-12.751,0.459
		c7.643,0.661,15.273,2.064,22.793,4.771c48.762,17.567,78.393,68.266,70.291,120.708c-8.063,52.188-51.074,90.829-102.396,92.52
		c-0.341,0-0.683,0-1.024,0.107h17.458c0.341-0.107,0.683-0.107,1.024-0.107c51.322-1.691,94.333-40.333,102.396-92.521
		c8.101-52.443-21.53-103.141-70.291-120.708c-8.976-3.232-18.101-4.919-27.23-5.271c-0.107,0.001-0.171,0.001-0.245,0
		L316.923,1020.433z"/>
</g>
</svg>