<?xml version="1.0" encoding="iso-8859-1"?>
<!-- Uploaded to: SVG Repo, www.svgrepo.com, Generator: SVG Repo Mixer Tools -->
<svg version="1.1" id="Layer_1" xmlns="http://www.w3.org/2000/svg" xmlns:xlink="http://www.w3.org/1999/xlink" 
	 viewBox="0 0 424.355 424.355" xml:space="preserve">
<g>
	<rect x="202.31" y="69.123" style="fill:#FFDE55;" width="19.736" height="58.631"/>
	
		<rect x="304.103" y="111.285" transform="matrix(-0.7071 -0.7071 0.7071 -0.7071 436.563 462.0305)" style="fill:#FFDE55;" width="19.736" height="58.63"/>
	<rect x="38.905" y="232.528" style="fill:#FFDE55;" width="58.631" height="19.736"/>
	<rect x="326.821" y="232.528" style="fill:#FFDE55;" width="58.631" height="19.736"/>
	
		<rect x="100.518" y="111.289" transform="matrix(0.7071 -0.7071 0.7071 0.7071 -67.0905 119.2369)" style="fill:#FFDE55;" width="19.736" height="58.63"/>
	<path style="fill:#FFDE55;" d="M212.171,148.267c-51.98,0-94.12,42.15-94.12,94.13c0,14.75,3.4,28.72,9.45,41.15
		c2.69,5.52,5.89,10.73,9.57,15.58c7.91-0.29,15.75-2.67,22.62-7.13c2.19-1.41,4.29-3.04,6.25-4.88c1.18-1.11,2.44-2.1,3.74-2.98
		c10.15-6.86,23.62-6.86,33.77,0c1.3,0.88,2.56,1.87,3.74,2.98c17.16,16.07,44.04,16.07,61.2,0c0.49-0.46,1-0.91,1.52-1.33
		c0.72-0.59,1.46-1.14,2.22-1.65c6.81-4.6,15.1-6.12,22.88-4.54c1.11,0.22,2.2,0.5,3.28,0.85c1.96-4.42,3.58-9.01,4.84-13.76
		c2.07-7.75,3.17-15.89,3.17-24.29C306.301,190.416,264.161,148.267,212.171,148.267z"/>
	<path style="fill:#57C3FF;" d="M422.391,287.776c-2.76,2.94-7.38,3.09-10.32,0.34c-11.57-10.84-29.68-10.84-41.25,0
		c-5.89,5.51-12.93,9.14-20.33,10.87c-0.01,0-0.01,0-0.01,0c-14.15,3.3-29.59-0.33-40.86-10.87c-1.18-1.11-2.43-2.1-3.74-2.98
		c-2.38-1.61-4.93-2.84-7.59-3.69c-1.08-0.35-2.17-0.63-3.28-0.85c-7.78-1.58-16.07-0.06-22.88,4.54c-0.76,0.51-1.5,1.06-2.22,1.65
		c-0.52,0.42-1.03,0.87-1.52,1.33c-17.16,16.07-44.04,16.07-61.2,0c-1.18-1.11-2.44-2.1-3.74-2.98c-10.15-6.86-23.62-6.86-33.77,0
		c-1.3,0.88-2.56,1.87-3.74,2.98c-1.96,1.84-4.06,3.47-6.25,4.88c-6.87,4.46-14.71,6.84-22.62,7.13
		c-11.57,0.45-23.29-3.56-32.32-12.01c-11.56-10.84-29.68-10.84-41.24,0c-0.22,0.19-0.42,0.39-0.63,0.57
		c-8.49,7.65-19.23,11.48-29.97,11.48c-11.01,0-22.02-4.02-30.6-12.05c-2.95-2.76-3.09-7.38-0.34-10.32
		c2.76-2.94,7.38-3.09,10.32-0.34c11.55,10.83,29.67,10.83,41.23,0c0.03-0.02,0.05-0.04,0.07-0.05
		c14.18-13.23,34.97-15.521,51.43-6.85c3.46,1.82,6.73,4.12,9.7,6.9c3.73,3.49,8.13,5.85,12.78,7.09c0.57,0.15,1.14,0.28,1.71,0.4
		c0.34,0.07,0.67,0.14,1.02,0.19c3.38,0.59,6.85,0.59,10.24,0c3.58-0.6,7.06-1.85,10.27-3.76c1.85-1.08,3.61-2.39,5.23-3.92
		c17.16-16.07,44.04-16.07,61.2,0c4.44,4.17,9.85,6.73,15.5,7.68c3.38,0.59,6.85,0.59,10.24,0c5.64-0.95,11.05-3.51,15.5-7.68
		c6.41-6.01,14.19-9.77,22.31-11.28c3.99-0.74,8.07-0.94,12.1-0.6c3.49,0.29,6.96,1,10.31,2.11c5.98,1.97,11.61,5.23,16.48,9.77
		c0.15,0.15,0.31,0.29,0.47,0.43c11.58,10.4,29.36,10.25,40.77-0.43c4.77-4.48,10.31-7.7,16.17-9.68
		c15.2-5.14,32.63-1.92,45.02,9.68C424.981,280.206,425.141,284.836,422.391,287.776z"/>
	<path style="fill:#57C3FF;" d="M422.39,342.843c-2.762,2.942-7.378,3.088-10.32,0.337c-11.566-10.836-29.679-10.836-41.246,0
		c-5.895,5.514-12.936,9.141-20.336,10.87c-0.011,0-0.011,0-0.011,0c-14.149,3.301-29.59-0.326-40.853-10.87
		c-1.179-1.111-2.437-2.1-3.739-2.976c-3.346-2.268-7.041-3.784-10.87-4.548c-7.782-1.573-16.069-0.056-22.886,4.548
		c-1.303,0.876-2.56,1.864-3.739,2.976c-17.159,16.069-44.042,16.069-61.2,0c-1.179-1.111-2.437-2.1-3.739-2.976
		c-10.151-6.861-23.615-6.861-33.767,0c-1.303,0.876-2.56,1.864-3.739,2.976c-17.147,16.069-44.031,16.069-61.189,0
		c-11.566-10.836-29.679-10.836-41.246,0c-0.213,0.191-0.415,0.393-0.629,0.573c-8.489,7.647-19.225,11.476-29.971,11.476
		c-11.005,0-22.021-4.02-30.6-12.049c-2.942-2.762-3.088-7.378-0.337-10.32c2.762-2.942,7.378-3.088,10.32-0.337
		c11.555,10.825,29.668,10.825,41.234,0c0.022-0.022,0.045-0.045,0.067-0.056c14.183-13.228,34.968-15.519,51.431-6.85
		c3.459,1.819,6.726,4.121,9.702,6.906c4.177,3.908,9.208,6.412,14.486,7.49c0.337,0.067,0.674,0.135,1.022,0.191
		c3.38,0.584,6.85,0.584,10.241,0c5.637-0.955,11.05-3.515,15.497-7.681c17.159-16.069,44.042-16.069,61.2,0
		c4.436,4.166,9.848,6.726,15.497,7.681c3.38,0.584,6.85,0.584,10.241,0c5.637-0.955,11.05-3.515,15.497-7.681
		c9.568-8.961,22.167-12.925,34.418-11.881c9.713,0.82,19.191,4.783,26.782,11.881c0.157,0.146,0.314,0.292,0.472,0.427
		c11.578,10.398,29.365,10.252,40.774-0.427c4.773-4.481,10.309-7.704,16.17-9.68c15.193-5.143,32.633-1.92,45.019,9.68
		C424.984,335.275,425.141,339.901,422.39,342.843z"/>
</g>
</svg>