<?xml version="1.0" encoding="utf-8"?>
<!-- Uploaded to: SVG Repo, www.svgrepo.com, Generator: SVG Repo Mixer Tools -->
<svg xmlns="http://www.w3.org/2000/svg" xmlns:xlink="http://www.w3.org/1999/xlink" version="1.1" id="thunderstorm"  viewBox="0 0 216 211.125" enable-background="new 0 0 216 211.125" xml:space="preserve" width="512" height="512">
<g>
	<path fill="#D0E8FF" d="M67.357,136c-3.3669,8.9324-7.6797,21.1025-10.1057,28h26.3633c2.168,0,3.9414,1.7246,4,3.8906   l0.5625,20.8047l15.3867-36.125H77.2084c-2.2109,0-4-1.791-4-4V136H67.357z"/>
	<path fill="#5CB0FF" d="M63.4505,127.9609c0.2617-0.0039,0.5156,0.002,0.7617,0.0391h0.2476c0.0017,0,0.0034,0,0.0051,0h75.9917   c0,0,0.0034,0,0.0051,0h34.5083c0.1406-0.0234,0.2812-0.0391,0.4219-0.0449c18.0703-0.9316,32.2227-15.8457,32.2227-33.9551   c0-18.748-15.2539-34-34-34c-0.6055,0-1.2031,0.0156-1.8008,0.0449c-1.0938,0.0723-2.1602-0.3418-2.957-1.0957   c-0.793-0.7559-1.2422-1.8027-1.2422-2.8984c0-26.5176-22.4297-48.0508-50-48.0508C95.7162,8,76.556,21.4531,69.9427,41.4746   c-0.5859,1.7793-2.3594,2.9102-4.1875,2.7266C64.3919,44.0684,63.0091,44,61.6146,44c-23.1602,0-42,18.8418-42,42s18.8398,42,42,42   C62.2318,128,62.8412,127.9883,63.4505,127.9609z"/>
	<path fill="#D0E8FF" d="M143.357,136c-3.3669,8.9324-7.6797,21.1025-10.1057,28h26.3633c2.168,0,3.9414,1.7246,4,3.8906   l0.5625,20.8047l15.3867-36.125h-26.3555c-2.2109,0-4-1.791-4-4V136H143.357z"/>
	<path fill="#1C71DA" d="M175.6146,136c0.2891,0,0.5742-0.0332,0.8516-0.0957c22.0078-1.4746,39.1484-19.7559,39.1484-41.9043   c0-22.5371-17.8438-40.9844-40.1445-41.959C173.3607,23.002,148.2162,0,117.6146,0c-24.2773,0-45.6719,14.3555-54.207,36.0312   C62.8138,36.0098,62.2162,36,61.6146,36c-27.5703,0-50,22.4297-50,50c0,26.6421,20.9614,48.4204,47.2502,49.8608   c-4.8503,13.0527-10.9592,30.6252-11.0276,30.8267c-0.4258,1.2227-0.2344,2.5762,0.5195,3.6309   c0.75,1.0547,1.9648,1.6816,3.2578,1.6816h28.1055l0.957,35.2344c0.0508,1.8789,1.4062,3.4688,3.2539,3.8203   c0.25,0.0469,0.5,0.0703,0.7461,0.0703c1.5781,0,3.043-0.9375,3.6797-2.4336l24.9375-58.5547   c0.5273-1.2344,0.3984-2.6523-0.3438-3.7715c-0.7383-1.1211-1.9922-1.7949-3.3359-1.7949H81.2084V136h53.605   c-4.842,13.0386-10.908,30.4868-10.9761,30.6875c-0.4258,1.2227-0.2344,2.5762,0.5195,3.6309   c0.75,1.0547,1.9648,1.6816,3.2578,1.6816h28.1055l0.957,35.2344c0.0508,1.8789,1.4062,3.4688,3.2539,3.8203   c0.25,0.0469,0.5,0.0703,0.7461,0.0703c1.5781,0,3.043-0.9375,3.6797-2.4336l24.9375-58.5547   c0.5273-1.2344,0.3984-2.6523-0.3438-3.7715c-0.7383-1.1211-1.9922-1.7949-3.3359-1.7949h-28.4062V136H175.6146z M19.6146,86   c0-23.1582,18.8398-42,42-42c1.3945,0,2.7773,0.0684,4.1406,0.2012c1.8281,0.1836,3.6016-0.9473,4.1875-2.7266   C76.556,21.4531,95.7162,8,117.6146,8c27.5703,0,50,21.5332,50,48.0508c0,1.0957,0.4492,2.1426,1.2422,2.8984   c0.7969,0.7539,1.8633,1.168,2.957,1.0957C172.4115,60.0156,173.0091,60,173.6146,60c18.7461,0,34,15.252,34,34   c0,18.1094-14.1523,33.0234-32.2227,33.9551c-0.1406,0.0059-0.2812,0.0215-0.4219,0.0449h-34.5083c-0.0017,0-0.0034,0-0.0034,0   H64.4649c-0.0017,0-0.0034,0-0.0051,0h-0.2476c-0.2461-0.0371-0.5-0.043-0.7617-0.0391C62.8412,127.9883,62.2318,128,61.6146,128   C38.4544,128,19.6146,109.1582,19.6146,86z M77.2084,152.5703h26.3555l-15.3867,36.125l-0.5625-20.8047   c-0.0586-2.166-1.832-3.8906-4-3.8906H57.2513c2.426-6.8975,6.7388-19.0676,10.1057-28h5.8513v12.5703   C73.2084,150.7793,74.9974,152.5703,77.2084,152.5703z M153.2084,152.5703h26.3555l-15.3867,36.125l-0.5625-20.8047   c-0.0586-2.166-1.832-3.8906-4-3.8906h-26.3633c2.426-6.8975,6.7388-19.0676,10.1057-28h5.8513v12.5703   C149.2084,150.7793,150.9974,152.5703,153.2084,152.5703z"/>
</g>
<path fill="#FF5D5D" d="M188,26.8322c-1.0234,0-2.0469-0.3906-2.8281-1.1714c-1.5625-1.5625-1.5625-4.0952,0-5.6572l14.1426-14.1421  c1.5605-1.5615,4.0938-1.5615,5.6562,0c1.5625,1.5625,1.5625,4.0952,0,5.6572l-14.1426,14.1421  C190.0479,26.4415,189.0234,26.8322,188,26.8322z"/>
<path fill="#FF5D5D" d="M202.1426,26.8322c-1.0234,0-2.0469-0.3906-2.8281-1.1714l-14.1426-14.1421  c-1.5625-1.562-1.5625-4.0947,0-5.6572c1.5605-1.5615,4.0938-1.5615,5.6562,0l14.1426,14.1421c1.5625,1.562,1.5625,4.0947,0,5.6572  C204.1904,26.4415,203.166,26.8322,202.1426,26.8322z"/>
<path fill="#00D40B" d="M202,182.8322c-7.7197,0-14-6.2803-14-14s6.2803-14,14-14s14,6.2803,14,14S209.7197,182.8322,202,182.8322z   M202,162.8322c-3.3086,0-6,2.6914-6,6s2.6914,6,6,6s6-2.6914,6-6S205.3086,162.8322,202,162.8322z"/>
<path fill="#FFC504" d="M15.3135,161.4596c-1.0605,0-2.0781-0.4214-2.8281-1.1719l-11.3135-11.314  c-1.5625-1.562-1.5625-4.0942,0-5.6567l11.3135-11.3135c1.5605-1.5615,4.0957-1.5615,5.6562,0l11.3135,11.3135  c1.5625,1.5625,1.5625,4.0947,0,5.6567l-11.3135,11.314C17.3916,161.0382,16.374,161.4596,15.3135,161.4596z M9.6572,146.1456  l5.6562,5.6572l5.6562-5.6572l-5.6562-5.6567L9.6572,146.1456z"/>
</svg>